<?xml version="1.0" encoding="utf-8" ?>
<svg baseProfile="tiny" height="330" version="1.2" width="284" xmlns="http://www.w3.org/2000/svg" xmlns:ev="http://www.w3.org/2001/xml-events" xmlns:xlink="http://www.w3.org/1999/xlink"><defs /><polyline fill="black" points="190,265 190,266 191,267 191,268 192,269 192,270 193,271 193,274 195,274 195,270 197,268 197,267 198,266 198,265 196,265 196,266 195,267 195,268 194,269 193,268 193,267 192,266 192,265" stroke="none" /><polyline fill="black" points="179,265 179,274 180,274 180,272 181,271 182,272 182,274 185,274 185,271 186,270 187,271 187,274 188,274 188,265 186,265 185,266 185,269 184,270 183,270 182,269 182,266 181,265" stroke="none" /><polyline fill="black" points="163,265 161,267 161,269 162,270 163,270 164,271 163,272 161,272 161,273 162,274 163,274 164,275 165,274 167,274 168,273 169,274 171,274 171,273 172,272 174,272 175,273 175,274 177,274 177,273 176,272 176,270 175,269 175,267 174,266 174,265 172,265 172,266 171,267 171,268 170,269 170,271 169,272 168,272 167,271 167,270 166,270 165,269 166,268 167,268 167,266 166,266 165,265" stroke="none" /><polyline fill="black" points="152,265 152,273 153,274 154,274 155,275 156,275 157,274 158,274 159,273 159,265 158,265 158,271 156,273 155,273 154,272 154,266 153,265" stroke="none" /><polyline fill="black" points="142,265 142,274 143,274 143,270 144,269 145,270 145,271 146,272 146,273 147,274 150,274 150,265 148,265 148,269 147,270 146,269 146,268 145,267 145,266 144,265" stroke="none" /><polyline fill="black" points="132,265 132,273 133,274 134,274 135,275 136,275 137,274 139,274 139,273 140,272 140,265 138,265 138,272 137,273 135,273 134,272 134,265" stroke="none" /><polyline fill="black" points="120,265 120,274 122,274 122,273 123,272 124,273 124,274 126,274 127,273 128,274 130,274 130,265 127,265 127,268 126,269 126,270 125,271 124,270 124,267 123,266 123,265" stroke="none" /><polyline fill="black" points="170,210 170,211 173,214 173,215 174,216 174,217 175,218 175,219 176,220 176,221 177,222 177,224 178,225 178,226 179,227 179,228 180,229 180,230 181,231 181,233 182,234 182,235 183,236 183,237 184,238 184,239 185,240 185,242 186,243 186,246 185,247 185,248 182,251 181,251 180,252 176,252 175,253 172,253 172,258 177,258 178,257 180,257 181,256 182,256 184,254 184,253 186,251 186,249 187,248 187,247 188,246 188,245 189,244 189,242 190,241 190,240 191,239 191,237 192,236 192,235 193,234 193,232 194,231 194,230 195,229 195,227 196,226 196,225 197,224 197,222 198,221 198,220 199,219 199,218 200,217 200,216 201,215 201,214 204,211 204,210 197,210 197,211 198,212 198,217 197,218 197,220 196,221 196,222 195,223 195,225 194,226 194,227 193,228 193,230 192,231 192,232 191,233 191,235 190,236 188,234 188,233 187,232 187,231 186,230 186,228 185,227 185,226 184,225 184,224 183,223 183,221 182,220 182,219 181,218 181,216 180,215 180,212 181,211 181,210" stroke="none" /><polyline fill="black" points="157,209 156,210 152,210 151,211 150,211 147,214 147,215 146,216 146,217 145,218 146,218 150,214 151,214 152,213 158,213 163,218 163,221 164,222 164,226 163,227 159,227 158,228 154,228 153,229 152,229 151,230 150,230 149,231 148,231 146,233 146,234 145,235 145,241 148,244 149,244 150,245 157,245 158,244 159,244 161,242 162,242 162,241 163,240 164,241 164,243 166,245 171,245 172,244 173,244 173,243 171,243 170,242 170,222 169,221 169,217 168,216 168,215 167,214 167,213 166,212 165,212 164,211 163,211 162,210 159,210 158,209" stroke="none" /><polyline fill="black" points="141,209 140,210 138,210 137,211 136,211 135,212 133,212 133,213 134,214 134,215 135,216 135,252 134,253 134,254 131,257 130,257 130,258 134,258 135,257 136,257 137,256 138,256 139,255 139,254 140,253 140,252 141,251" stroke="none" /><polyline fill="black" points="128,209 127,210 126,210 125,211 123,211 122,212 120,212 120,213 121,214 121,215 122,216 122,241 121,242 121,244 130,244 130,243 129,242 129,240 128,239" stroke="none" /><polyline fill="black" points="136,197 135,198 135,199 134,200 134,202 137,205 139,205 140,204 141,204 141,203 142,202 142,199 140,197" stroke="none" /><polyline fill="black" points="124,197 123,198 122,198 122,199 121,200 121,201 122,202 122,203 123,204 124,204 125,205 126,205 127,204 128,204 129,203 129,199 127,197" stroke="none" /><polyline fill="black" points="161,114 161,115 162,115 162,114" stroke="none" /><polyline fill="black" points="165,106 165,107 166,107 166,106" stroke="none" /><polyline fill="black" points="193,29 192,30 191,30 189,32 188,32 177,43 177,44 174,47 174,48 171,51 171,52 168,55 168,56 165,59 165,60 164,61 164,62 162,64 162,65 160,67 160,68 158,70 158,71 157,72 157,73 155,75 155,76 154,77 154,78 153,79 153,80 151,82 151,83 150,84 150,85 149,86 149,87 147,89 147,90 146,91 146,92 145,93 145,94 144,95 144,96 142,98 142,99 141,100 141,101 140,102 140,103 139,104 139,105 138,106 138,107 137,108 137,110 136,111 136,112 135,113 135,114 134,115 134,116 133,117 133,119 132,120 132,122 131,123 131,124 130,125 130,126 129,127 129,128 128,129 128,131 127,132 127,133 126,134 126,136 125,137 125,138 124,139 124,140 123,141 123,143 122,144 122,145 121,146 121,148 120,149 120,150 119,151 119,153 118,154 118,156 117,157 117,159 116,160 116,162 115,163 115,166 114,167 114,169 113,170 113,173 112,174 112,176 111,177 111,179 110,180 110,183 109,184 109,186 108,187 108,189 107,190 107,193 106,194 106,197 105,198 105,200 104,201 104,203 103,204 103,206 102,207 102,210 101,211 101,213 100,214 100,216 99,217 99,219 98,220 98,222 97,223 97,225 96,226 96,227 95,228 95,229 94,230 94,231 93,232 92,231 92,228 94,226 94,223 93,222 93,218 94,217 94,215 93,214 93,187 94,186 94,172 95,171 95,157 96,156 96,145 97,144 97,136 98,135 98,128 99,127 99,121 100,120 100,106 101,105 101,100 102,99 102,95 103,94 103,92 102,91 102,90 100,88 100,87 99,86 99,84 96,81 96,80 94,78 93,78 92,77 90,77 89,76 83,76 82,77 80,77 79,78 78,78 77,79 76,79 74,81 74,95 73,96 73,102 72,103 72,110 71,111 71,116 70,117 70,122 69,123 69,128 68,129 68,133 67,134 67,139 66,140 66,149 65,150 66,151 65,152 65,165 64,166 64,192 63,193 63,200 64,201 64,221 65,222 65,229 66,230 66,233 67,234 67,239 68,240 68,242 69,243 69,244 70,245 70,246 71,247 71,248 72,249 72,250 74,252 75,252 76,253 77,253 78,254 79,254 80,255 88,255 89,254 91,254 92,253 92,252 93,251 94,251 100,245 100,244 101,243 102,243 102,242 103,241 103,240 104,239 104,237 106,235 107,235 107,234 109,232 109,230 110,229 110,225 111,224 111,223 112,222 112,221 113,220 113,216 115,214 115,211 116,210 116,209 117,208 117,206 118,205 118,202 119,201 119,199 120,198 120,197 121,196 121,194 122,193 122,192 123,191 123,190 124,189 124,188 125,187 125,186 126,185 126,184 129,181 129,179 130,178 131,179 131,181 132,181 132,179 131,178 131,176 132,175 132,174 133,173 133,172 134,171 135,171 135,170 136,169 136,168 137,167 136,166 137,165 138,165 138,162 140,160 140,158 141,157 141,156 142,155 142,154 143,153 143,152 144,151 144,150 145,149 146,149 146,145 147,144 148,145 148,146 149,145 149,144 148,144 147,143 147,141 148,140 148,139 149,138 150,139 150,141 151,141 151,139 150,139 149,138 149,137 150,136 150,135 151,134 152,135 153,135 153,134 155,132 155,130 154,130 153,129 153,128 154,127 155,127 156,128 157,127 157,124 158,123 159,123 159,121 158,121 157,120 157,118 156,118 155,117 156,116 156,115 157,114 157,113 158,112 158,111 159,110 159,109 160,108 160,107 161,106 161,105 163,103 163,102 164,101 164,100 165,99 165,98 166,97 167,97 167,94 168,93 168,92 169,91 169,89 171,87 171,86 172,85 172,82 174,80 174,78 175,77 175,76 176,75 176,74 177,73 177,72 178,71 179,71 181,69 181,68 182,67 182,66 183,65 183,63 185,61 185,60 186,59 186,58 187,57 187,56 188,55 188,54 189,53 189,51 191,49 190,48 190,47 191,46 191,45 192,44 192,43 193,42 193,41 194,40 194,38 193,38 192,39 191,38 189,40 188,39 188,37 189,36 189,35 192,32 195,32 196,33 196,34 197,34 197,32 195,30 194,30" stroke="none" /></svg>